<?xml version="1.0" encoding="utf-8"?>
<!-- Generator: Adobe Illustrator 24.0.1, SVG Export Plug-In . SVG Version: 6.00 Build 0)  -->
<svg version="1.1" id="Layer_1" xmlns="http://www.w3.org/2000/svg" xmlns:xlink="http://www.w3.org/1999/xlink" x="0px" y="0px"
	 viewBox="0 0 600 600" style="enable-background:new 0 0 600 600;" xml:space="preserve">
<style type="text/css">
	.st0{opacity:0.75;fill-rule:evenodd;clip-rule:evenodd;fill:#1E676C;}
	.st1{opacity:0.5;fill-rule:evenodd;clip-rule:evenodd;fill:#1E676C;}
	.st2{fill-rule:evenodd;clip-rule:evenodd;fill:#1E676C;}
	.st3{opacity:0.25;fill-rule:evenodd;clip-rule:evenodd;fill:#1E676C;}
	.st4{fill:#FFFFFF;}
	.st5{fill:#222A2A;}
</style>
<g>
	<g>
		<path class="st0" d="M321.05,168.12c-19.84,9.72-38.57,23.14-54.89,39.47c-20.51,20.51-36.1,44.48-46.5,70.48
			c29.75,17.91,60.66,16.75,74.23,47.07c-2.02-17.62-14.15-30.33-36.39-37.54c-5.78-26.57,5.78-52.86,27.44-67.01
			c0,12.42,4.62,24.84,13.57,34.08c-6.93-12.41-6.93-28.02,0-40.43c11.27-15.02,28.02-25.13,46.5-28.02
			c-25.12,38.13-12.99,64.4-12.13,98.19c6.94-5.78,14.73-10.97,22.82-15.88c21.94-12.82,45.87-20.58,69.82-23.84
			C405.74,204.36,367.02,174.95,321.05,168.12z M282.9,345.65c-12.41,3.75-20.79,9.24-28.88,18.19c-17.62,1.45-34.37-2.3-49.1-11.84
			c-0.55,20.92,2.04,41.58,8.04,61.73c10.1,8.21,21.37,15.02,33.51,20.15c-0.32-3.57-1.73-10.17-1.99-19.21
			C244.49,388.68,261.24,359.79,282.9,345.65z"/>
		<path class="st1" d="M204.93,352c-1.45-0.57-2.6-1.44-3.76-2.31c-15.88-11.26-22.52-22.52-25.98-40.14
			c8.37,4.61,17.33,7.22,26.56,7.8c-10.4-3.46-19.93-8.96-28.02-16.18c-2.05-2.06-7.92-8.47-11.28-12.49
			c-0.68,5.58-1.03,11.26-1.03,17.02c0,43.56,20.12,82.51,51.56,108.02C206.97,393.57,204.38,372.91,204.93,352z M300.51,166.61
			c-51.07,0-95.8,27.66-120,68.8c1.6,2.96,3.24,5.9,5.05,8.87c5.21,8.23,10.75,14.87,16.5,20.36c5.74,5.48,11.66,9.82,17.58,13.43
			c10.4-25.99,25.99-49.97,46.5-70.48c16.33-16.33,35.05-29.75,54.89-39.47C314.35,167.12,307.49,166.61,300.51,166.61z"/>
		<path class="st2" d="M425.51,244.68c-23.95,3.26-47.88,11.02-69.82,23.84c-8.09,4.91-15.88,10.11-22.82,15.88
			c0,7.8-0.29,16.18-2.02,25.13c19.35-10.11,24.26-35.81,47.07-27.73c9.25,3.17,15.61,11.84,15.88,21.66
			c6.65,2.02,12.13,6.93,14.73,13.86c-7.8-3.46-16.76-3.46-24.55,0c-12.7,5.78-14.43,21.08-34.07,28.88
			c-19.93,7.8-39.58-1.44-61.24,15.59c25.7-11.84,44.19,0.29,66.43-8.09c-7.51,8.96-18.78,17.63-38.42,23.68
			c-13.72,4.23-30.04,9.79-40.68,20.38c-0.82,0.81-1.61,1.66-2.36,2.54c-0.75,0.88-1.46,1.79-2.13,2.73
			c-0.45,0.62-0.88,1.27-1.29,1.93c-5.46,8.79-7.49,20.28-3.4,35.68c0.2,0.05,0.4,0.11,0.59,0.15c1.2-14.78,3.73-25.68,14.91-37.13
			c-1.74,6.07-2.89,12.71-3.18,19.36c-0.8,6.94-0.37,13.63,1.3,20.3c6.55,0.96,13.25,1.45,20.07,1.45c76.7,0,139.1-62.4,139.1-139.1
			C439.62,283.83,434.54,263.12,425.51,244.68z M376.48,291.64c-2.02,0-3.46,1.44-3.46,3.17c0,1.73,1.44,3.46,3.46,3.46
			c1.73,0,3.18-1.73,3.18-3.46C379.66,293.08,378.21,291.64,376.48,291.64z"/>
		<path class="st3" d="M300.51,153.31c-84.03,0-152.39,68.36-152.39,152.39c0,84.03,68.37,152.39,152.39,152.39
			c84.04,0,152.39-68.37,152.39-152.39C452.91,221.67,384.55,153.31,300.51,153.31z M300.51,444.81c-6.82,0-13.52-0.49-20.07-1.45
			c-4.41-0.63-8.75-1.48-13.02-2.53v-0.01c-0.19-0.04-0.39-0.1-0.59-0.15v0.01c-7-1.74-13.8-4.02-20.35-6.8
			c-12.14-5.13-23.41-11.95-33.51-20.15c-31.44-25.51-51.56-64.46-51.56-108.02c0-5.76,0.35-11.44,1.03-17.02
			c2.37-19.24,8.66-37.28,18.07-53.28c24.2-41.14,68.93-68.8,120-68.8c6.98,0,13.83,0.52,20.53,1.52
			c45.98,6.83,84.69,36.24,104.46,76.56c9.03,18.43,14.11,39.15,14.11,61.02C439.62,382.41,377.22,444.81,300.51,444.81z"/>
	</g>
	<path class="st4" d="M280.45,443.36c-4.41-0.63-8.75-1.48-13.02-2.53v-0.01c1.2-14.78,3.73-25.68,14.91-37.13
		c-1.74,6.07-2.89,12.71-3.18,19.36C278.35,429.99,278.78,436.68,280.45,443.36z"/>
	<path class="st4" d="M393.8,303.48c-0.28-9.82-6.64-18.49-15.88-21.66c-22.81-8.09-27.73,17.62-47.07,27.73
		c1.73-8.96,2.02-17.34,2.02-25.13c-0.86-33.79-12.99-60.07,12.13-98.19c-18.49,2.88-35.23,12.99-46.5,28.02
		c-6.93,12.41-6.93,28.02,0,40.43c-8.95-9.24-13.57-21.66-13.57-34.08c-21.66,14.15-33.21,40.44-27.44,67.01
		c22.24,7.22,34.37,19.93,36.39,37.54c-13.57-30.33-44.48-29.17-74.23-47.07c-5.93-3.61-11.84-7.95-17.58-13.43
		c-5.74-5.48-11.29-12.13-16.5-20.36c-1.82-2.97-3.45-5.92-5.05-8.87c-9.41,16-15.7,34.04-18.07,53.28
		c3.37,4.01,9.23,10.42,11.28,12.49c8.09,7.22,17.62,12.71,28.02,16.18c-9.24-0.58-18.2-3.18-26.56-7.8
		c3.46,17.62,10.1,28.88,25.98,40.14c1.16,0.87,2.31,1.74,3.76,2.31c14.72,9.54,31.48,13.29,49.1,11.84
		c8.09-8.95,16.47-14.43,28.88-18.19c-21.66,14.14-38.41,43.03-38.41,69.02c0.26,9.03,1.67,15.64,1.99,19.21
		c6.55,2.77,13.35,5.05,20.35,6.8v-0.01c-4.09-15.4-2.06-26.9,3.4-35.68c0.41-0.66,0.84-1.3,1.29-1.93
		c0.67-0.95,1.38-1.85,2.13-2.73c0.74-0.87,1.54-1.72,2.36-2.54c10.65-10.59,26.96-16.15,40.68-20.38
		c19.64-6.05,30.91-14.72,38.42-23.68c-22.24,8.38-40.73-3.75-66.43,8.09c21.66-17.04,41.31-7.8,61.24-15.59
		c19.64-7.8,21.37-23.1,34.07-28.88c7.8-3.46,16.76-3.46,24.55,0C405.93,310.41,400.45,305.5,393.8,303.48z M376.48,298.28
		c-2.02,0-3.46-1.73-3.46-3.46c0-1.73,1.44-3.17,3.46-3.17c1.73,0,3.18,1.44,3.18,3.17C379.66,296.54,378.21,298.28,376.48,298.28z"
		/>
	<g>
		<path class="st5" d="M82.97,250.42c-0.47-0.14-0.78-0.65-0.62-1.16l3.24-10.5c1.75-5.67,6.76-8.59,11.68-7.07
			c3.61,1.11,5.36,4.58,5.95,7.17c1.8-2.17,5.13-4.83,9.45-3.5c5.25,1.62,7.72,7.1,5.89,13.01l-3.4,11.02
			c-0.16,0.51-0.7,0.76-1.17,0.62L82.97,250.42z M99.75,243.43c0.93-3-0.71-5.51-3.52-6.37c-2.86-0.88-5.39,0.34-6.32,3.34
			l-1.95,6.33l9.84,3.04L99.75,243.43z M114.23,247.08c0.88-2.86-0.64-5.74-3.55-6.64c-2.86-0.88-5.76,1.2-6.7,4.25l-1.98,6.42
			l10.03,3.09L114.23,247.08z"/>
		<path class="st5" d="M125.55,225.18l-21.17-29.47c-0.18-0.27-0.18-0.78-0.05-0.99l0.24-0.43c0.12-0.21,0.55-0.47,0.88-0.46
			l36.08,3.42c0.7,0.06,1.06,0.72,0.69,1.36l-1.54,2.68c-0.29,0.51-0.72,0.66-1.2,0.61l-7.34-0.7l-7.97,13.92
			c1.47,1.97,2.88,3.96,4.35,5.94c0.22,0.3,0.37,0.83,0.08,1.34l-1.54,2.68C126.7,225.73,125.96,225.75,125.55,225.18z
			 M127.56,200.73l-14.66-1.44l-0.12,0.21l8.69,11.87L127.56,200.73z"/>
		<path class="st5" d="M136.73,151.11c3.37-3.64,7.02-5.13,11.41-5.61c0.59-0.06,1.02,0.34,1.04,0.9l0.15,3.08
			c0.09,0.55-0.21,0.88-0.83,0.9c-3.04,0.33-6.11,1.76-8.18,4c-4.77,5.15-4.05,13.04,0.99,17.7c5.04,4.67,12.96,4.71,17.72-0.44
			c2.43-2.63,3.09-5.43,3.36-8.39c0.05-0.56,0.38-0.85,0.76-0.9l3.15-0.16c0.52-0.05,0.92,0.45,0.94,0.94
			c0.11,4.65-1.64,8.78-4.61,11.98c-6.66,7.2-17.76,7.7-24.96,1.03C130.5,169.47,130.07,158.31,136.73,151.11z"/>
		<path class="st5" d="M165.19,127.57c-0.36-0.53-0.26-1.25,0.31-1.64l2.35-1.61c0.53-0.36,1.28-0.22,1.64,0.31l7.67,11.22
			l3.37-19.59c0.02-0.31,0.17-0.71,0.49-0.93l3.04-2.08c0.73-0.5,1.72,0.08,1.56,1.07l-3.57,19.91l21.72,5.18
			c0.6,0.18,1.04,1.25,0.18,1.84l-3.24,2.21c-0.4,0.28-0.76,0.28-0.92,0.22l-20.87-5.23l8.61,12.6c0.36,0.53,0.22,1.28-0.31,1.64
			l-2.35,1.61c-0.57,0.39-1.28,0.22-1.64-0.31L165.19,127.57z"/>
		<path class="st5" d="M236.35,93.98l-8.19,2.39c-0.52,0.15-1.02-0.16-1.16-0.63l-0.4-1.37c-0.14-0.47,0.12-1,0.63-1.16l19.96-5.83
			c0.52-0.15,1.02,0.16,1.16,0.63l0.4,1.37c0.14,0.47-0.12,1.01-0.63,1.16l-8.19,2.39l8.44,28.91c0.14,0.47-0.16,1.02-0.63,1.16
			l-1.79,0.52c-0.47,0.14-1.02-0.16-1.16-0.63L236.35,93.98z"/>
		<path class="st5" d="M285.52,81.27c9.79-0.64,18.14,6.72,18.78,16.51c0.64,9.79-6.68,18.09-16.47,18.73s-18.09-6.63-18.73-16.42
			S275.73,81.92,285.52,81.27z M287.61,113.09c7.78-0.51,13.78-7.3,13.27-15.08c-0.51-7.78-7.35-13.82-15.13-13.31
			c-7.78,0.51-13.72,7.39-13.21,15.18C273.05,107.66,279.83,113.6,287.61,113.09z"/>
		<path class="st5" d="M354.35,88.46c0.14-0.47,0.64-0.78,1.16-0.63l10.53,3.12c5.69,1.69,8.67,6.66,7.2,11.6
			c-1.07,3.62-4.52,5.41-7.11,6.03c2.19,1.77,4.89,5.08,3.61,9.41c-1.56,5.27-7.02,7.79-12.95,6.04l-11.05-3.28
			c-0.52-0.15-0.77-0.69-0.63-1.16L354.35,88.46z M358.04,119.69c2.87,0.85,5.74-0.7,6.6-3.62c0.85-2.87-1.26-5.75-4.32-6.65
			l-6.44-1.91l-2.98,10.06L358.04,119.69z M361.53,105.17c3.01,0.89,5.5-0.77,6.34-3.6c0.85-2.87-0.4-5.39-3.41-6.28l-6.35-1.88
			l-2.93,9.88L361.53,105.17z"/>
		<path class="st5" d="M380.02,130.76l29.24-21.48c0.27-0.18,0.78-0.18,0.99-0.07l0.43,0.24c0.21,0.12,0.48,0.55,0.47,0.88
			l-3.03,36.12c-0.05,0.7-0.71,1.07-1.35,0.71l-2.7-1.51c-0.51-0.29-0.67-0.71-0.63-1.19l0.62-7.35l-14.01-7.82
			c-1.96,1.49-3.93,2.92-5.89,4.41c-0.3,0.23-0.83,0.38-1.34,0.09l-2.7-1.51C379.48,131.92,379.45,131.17,380.02,130.76z
			 M404.49,132.51l1.28-14.68l-0.21-0.12l-11.78,8.82L404.49,132.51z"/>
		<path class="st5" d="M421.3,151.94c0.75-0.19,1.53-0.49,2.28-0.68c0.75-0.19,1.4,0.11,1.51,0.8c0.06,0.38,0.84,5.23,3.69,7.71
			c2.55,2.23,5.53,2.09,7.18,0.21c1.94-2.22,1.24-5.3-1.1-10.01c-2.38-4.88-3.63-9.42,0.11-13.71c2.52-2.88,8.19-4.9,14.06,0.23
			c3.7,3.23,4.79,7.57,4.93,8.15c0.13,0.44-0.02,1.22-0.87,1.45c-0.68,0.18-1.47,0.41-2.15,0.6c-0.72,0.22-1.39,0.02-1.62-0.76
			c-0.13-0.37-1.23-4.33-3.38-6.2c-3.1-2.71-5.89-1.69-7.08-0.32c-1.84,2.11-1.34,4.82,0.63,8.75c2.77,5.48,4.65,10.71,0.72,15.21
			c-3.36,3.84-9.54,3.98-14.34-0.21c-4.51-3.94-5.29-8.78-5.4-9.86C420.41,152.73,420.38,152.25,421.3,151.94z"/>
		<path class="st5" d="M472.04,161.89c0.38-0.31,1-0.25,1.31,0.12l2.06,2.5c0.31,0.38,0.25,1-0.13,1.31l-25.05,20.67
			c-0.38,0.31-1,0.25-1.31-0.13l-2.06-2.5c-0.31-0.38-0.25-1,0.13-1.31L472.04,161.89z"/>
		<path class="st5" d="M499.49,199.72c2.4,4.33,2.68,8.27,1.77,12.59c-0.13,0.58-0.64,0.86-1.18,0.71l-2.98-0.82
			c-0.55-0.09-0.77-0.47-0.6-1.07c0.64-2.99,0.23-6.36-1.24-9.02c-3.4-6.13-11.12-7.91-17.13-4.58c-6.01,3.33-8.52,10.84-5.11,16.97
			c1.74,3.13,4.19,4.63,6.92,5.81c0.51,0.22,0.68,0.63,0.61,1.01l-0.84,3.04c-0.11,0.51-0.72,0.73-1.18,0.6
			c-4.45-1.35-7.83-4.3-9.94-8.12c-4.76-8.58-1.77-19.27,6.81-24.03C484,188.07,494.73,191.14,499.49,199.72z"/>
		<path class="st5" d="M485.13,239.93c0.74,0.24,1.56,0.4,2.29,0.64c0.74,0.24,1.12,0.84,0.86,1.49c-0.15,0.35-2.07,4.87-0.98,8.49
			c0.97,3.24,3.57,4.72,5.97,4c2.82-0.85,3.87-3.83,4.4-9.06c0.58-5.4,1.94-9.91,7.39-11.55c3.66-1.1,9.54,0.2,11.79,7.68
			c1.41,4.7,0.03,8.96-0.16,9.52c-0.12,0.45-0.67,1.02-1.51,0.76c-0.68-0.21-1.46-0.43-2.14-0.64c-0.72-0.19-1.19-0.72-0.96-1.5
			c0.09-0.39,1.26-4.32,0.44-7.05c-1.19-3.95-4.09-4.56-5.83-4.04c-2.68,0.8-3.7,3.37-4.13,7.75c-0.57,6.11-1.75,11.54-7.49,13.27
			c-4.89,1.47-10.19-1.7-12.03-7.81c-1.72-5.73,0.2-10.25,0.67-11.22C483.96,240.13,484.19,239.7,485.13,239.93z"/>
	</g>
	<g>
		<path class="st5" d="M109.34,324.06c0.3-0.04,0.6,0.19,0.64,0.49l0.16,1.16c0.04,0.33-0.19,0.6-0.49,0.64l-8.72,1.17l1.63,12.12
			l8.72-1.17c0.3-0.04,0.6,0.16,0.64,0.49l0.16,1.16c0.04,0.3-0.19,0.6-0.49,0.64l-19.76,2.66c-0.3,0.04-0.6-0.19-0.64-0.49
			l-0.16-1.16c-0.04-0.33,0.19-0.6,0.49-0.64l9.04-1.22l-1.63-12.12l-9.04,1.22c-0.3,0.04-0.6-0.16-0.64-0.49l-0.16-1.16
			c-0.04-0.3,0.19-0.6,0.49-0.64L109.34,324.06z"/>
		<path class="st5" d="M114.72,354.66c0.29-0.09,0.62,0.07,0.71,0.39l3.32,11.39c0.09,0.32-0.1,0.62-0.39,0.71l-0.84,0.24
			c-0.29,0.08-0.62-0.07-0.71-0.39l-2.83-9.72l-7.05,2.05l2.42,8.3c0.08,0.29-0.1,0.63-0.39,0.71l-0.84,0.24
			c-0.32,0.09-0.62-0.1-0.71-0.39l-2.42-8.3l-7.37,2.15l2.83,9.72c0.09,0.32-0.1,0.62-0.39,0.71l-0.84,0.24
			c-0.29,0.09-0.62-0.07-0.71-0.39l-3.32-11.39c-0.09-0.32,0.1-0.62,0.39-0.71L114.72,354.66z"/>
		<path class="st5" d="M103.69,384.76l22.24-0.01c0.2,0.01,0.4,0.08,0.51,0.33l0.12,0.27c0.11,0.25,0.04,0.45-0.09,0.6l-14.72,16.64
			c-0.28,0.33-0.74,0.27-0.92-0.14l-0.5-1.1c-0.11-0.25-0.02-0.49,0.09-0.6l3.61-4.08l-4.4-9.74l-5.43,0.04
			c-0.16,0.01-0.4-0.08-0.51-0.33l-0.5-1.1C103,385.14,103.25,384.76,103.69,384.76z M115.39,395.16c2.38-2.7,4.8-5.38,7.19-8.08
			l-0.1-0.22l-10.81,0.06L115.39,395.16z"/>
		<path class="st5" d="M135.46,404.42c0.26-0.16,0.61-0.1,0.79,0.18l0.62,1c0.16,0.26,0.07,0.63-0.18,0.79l-15.68,9.79l4.59,7.35
			c0.17,0.28,0.07,0.63-0.18,0.79l-0.74,0.46c-0.26,0.16-0.61,0.1-0.79-0.18l-5.52-8.83c-0.18-0.28-0.07-0.63,0.18-0.79
			L135.46,404.42z"/>
		<path class="st5" d="M148.34,425.69l-3.25-4.11c-0.21-0.26-0.14-0.62,0.09-0.8l0.68-0.54c0.24-0.19,0.6-0.17,0.8,0.09l7.93,10.01
			c0.21,0.26,0.14,0.62-0.09,0.8l-0.68,0.54c-0.24,0.19-0.6,0.17-0.8-0.09l-3.25-4.11l-14.49,11.49c-0.24,0.19-0.62,0.14-0.8-0.09
			l-0.71-0.9c-0.19-0.24-0.14-0.62,0.09-0.8L148.34,425.69z"/>
		<path class="st5" d="M162.15,439.65c0.21-0.22,0.59-0.23,0.81-0.02l0.85,0.81c0.24,0.23,0.23,0.59,0.02,0.81l-6.07,6.37l8.85,8.43
			l6.07-6.37c0.21-0.22,0.57-0.25,0.81-0.02l0.85,0.81c0.22,0.21,0.23,0.59,0.02,0.81l-13.75,14.44c-0.21,0.22-0.59,0.23-0.81,0.02
			l-0.85-0.81c-0.24-0.23-0.23-0.59-0.02-0.81l6.3-6.61l-8.85-8.43l-6.3,6.61c-0.21,0.22-0.57,0.25-0.81,0.02l-0.85-0.81
			c-0.22-0.21-0.23-0.59-0.02-0.81L162.15,439.65z"/>
		<path class="st5" d="M193.57,464.76c2.5,1.73,3.71,3.85,4.4,6.45c0.06,0.34-0.12,0.65-0.45,0.71l-1.13,0.21
			c-0.37,0.11-0.55-0.05-0.63-0.47c-0.52-2-1.76-3.96-3.45-5.13c-3.92-2.7-9.19-1.48-11.84,2.36c-2.64,3.82-1.91,9.18,2,11.89
			c2.16,1.49,4.02,1.49,6.02,1.41c0.38-0.03,0.57,0.13,0.65,0.34l0.28,1.18c0.1,0.29-0.19,0.6-0.49,0.65
			c-2.81,0.47-5.48-0.23-7.68-1.76c-4.96-3.42-6.22-10.12-2.8-15.07C181.87,462.58,188.61,461.34,193.57,464.76z"/>
		<path class="st5" d="M198.89,492.39l17.12-14.18c0.16-0.12,0.36-0.19,0.6-0.07l0.27,0.13c0.24,0.12,0.31,0.32,0.31,0.52
			l-0.73,22.2c-0.01,0.43-0.4,0.68-0.8,0.48l-1.08-0.53c-0.24-0.12-0.33-0.36-0.31-0.52l0.18-5.44l-9.6-4.7l-4.16,3.5
			c-0.12,0.11-0.36,0.19-0.6,0.07l-1.08-0.53C198.6,493.12,198.55,492.66,198.89,492.39z M214.54,492.94
			c0.12-3.6,0.27-7.21,0.39-10.8l-0.22-0.11l-8.29,6.94L214.54,492.94z"/>
		<path class="st5" d="M235.77,487.3c0.09-0.29,0.4-0.47,0.72-0.37l7.43,2.36c3.44,1.09,5.4,4.69,4.31,8.1
			c-0.84,2.64-3.29,4.29-6.11,4.51l1.61,8.54c0.08,0.44-0.26,0.83-0.75,0.68l-1.46-0.47c-0.26-0.08-0.36-0.27-0.38-0.4l-1.4-8.82
			l-5.48-1.74l-2.33,7.32c-0.09,0.29-0.43,0.46-0.72,0.37l-1.12-0.36c-0.32-0.1-0.46-0.43-0.37-0.72L235.77,487.3z M240.49,499.58
			c2.21,0.7,4.72-0.52,5.46-2.88c0.69-2.18-0.64-4.66-2.85-5.36l-5.57-1.77l-2.62,8.24L240.49,499.58z"/>
		<path class="st5" d="M262.77,494.75c0.05-0.3,0.33-0.52,0.66-0.47l11.7,1.97c0.33,0.06,0.52,0.36,0.47,0.66l-0.14,0.86
			c-0.05,0.3-0.33,0.52-0.66,0.47l-9.98-1.68l-1.22,7.25l8.52,1.43c0.3,0.05,0.52,0.36,0.47,0.66l-0.14,0.86
			c-0.05,0.33-0.36,0.52-0.66,0.47l-8.52-1.43l-1.27,7.57l9.98,1.68c0.33,0.06,0.52,0.36,0.47,0.66l-0.14,0.86
			c-0.05,0.3-0.33,0.52-0.66,0.47l-11.7-1.97c-0.33-0.06-0.52-0.36-0.47-0.66L262.77,494.75z"/>
		<path class="st5" d="M307.77,507.52l0-0.06l-0.76-0.74c-1.24-1.17-2.3-2.47-2.33-4.28c-0.12-2.29,1.43-4.96,5.07-5.15
			c3.25-0.17,5.19,1.87,5.32,4.37c0.14,2.68-2.46,4.83-4.15,6.01l5.22,4.71c0.7-1.63,1.03-3.49,0.93-5.42
			c-0.03-0.66,0.2-0.7,0.66-0.73l0.72-0.04c0.63-0.03,0.59,0.42,0.61,0.66c0.12,2.32-0.41,4.82-1.42,6.86l3.04,2.74
			c0.38,0.37,0.64,0.66,0.04,1.38l-0.34,0.35c-0.34,0.35-0.79,0.43-1.27-0.02l-2.69-2.51c-1.53,1.92-3.69,3.21-6.4,3.35
			c-3.79,0.2-5.94-2.29-6.09-5.23C303.73,510.51,306.19,508.57,307.77,507.52z M309.98,517.12c2.08-0.11,3.8-1.19,5.01-2.82
			l-5.87-5.55c-1.34,0.91-3.25,2.55-3.12,4.93C306.11,515.78,307.88,517.23,309.98,517.12z M312.96,501.82
			c-0.07-1.44-1.26-2.86-3.31-2.75c-1.99,0.1-3.06,1.58-2.96,3.32c0.01,1.3,0.9,2.28,2.1,3.33l0.7,0.63
			C310.8,505.47,313.07,503.99,312.96,501.82z"/>
		<path class="st5" d="M349.25,512.69l3.24-22.01c0.04-0.2,0.14-0.39,0.4-0.46l0.29-0.08c0.26-0.07,0.45,0.03,0.58,0.18l14.31,17
			c0.28,0.33,0.16,0.77-0.28,0.89l-1.16,0.33c-0.26,0.07-0.48-0.05-0.58-0.18l-3.51-4.17l-10.28,2.94l-0.75,5.38
			c-0.02,0.16-0.14,0.38-0.4,0.46l-1.16,0.33C349.53,513.43,349.19,513.12,349.25,512.69z M361.26,502.62
			c-2.32-2.75-4.62-5.54-6.94-8.29l-0.23,0.07l-1.52,10.71L361.26,502.62z"/>
		<path class="st5" d="M373.27,484.19c-0.12-0.28-0.01-0.62,0.29-0.76l10.84-4.84c0.3-0.14,0.63,0.01,0.76,0.29l0.36,0.8
			c0.12,0.27,0.01,0.62-0.29,0.76l-9.24,4.12l3,6.71l7.89-3.52c0.28-0.12,0.63,0.01,0.76,0.29l0.35,0.8
			c0.14,0.3-0.01,0.63-0.29,0.76l-7.89,3.52l3.13,7.01l9.24-4.12c0.3-0.13,0.63,0.01,0.76,0.29l0.36,0.8
			c0.12,0.28,0.01,0.62-0.29,0.76l-10.84,4.84c-0.3,0.13-0.63-0.01-0.76-0.29L373.27,484.19z"/>
		<path class="st5" d="M404.49,488.19c0.03-0.23,0.05-0.49,0.09-0.72c0.05-0.49,0.21-0.87,0.76-0.78c0.27,0.04,3.25,0.69,5.53-0.72
			c2.08-1.28,2.63-3.42,1.7-4.94c-1.09-1.77-3.27-1.87-6.98-1.29c-3.58,0.5-5.98,0.39-7.78-2.53c-1.07-1.74-1.42-5.42,2.66-7.93
			c2.51-1.54,5.19-1.39,5.19-1.39c0.2-0.02,0.7,0.1,0.69,0.78c-0.01,0.22,0,0.46-0.01,0.68c-0.01,0.5-0.2,0.76-0.76,0.78
			c-0.24,0.01-2.52-0.08-4.09,0.89c-2.72,1.67-2.47,3.92-1.8,5c1.06,1.72,2.98,1.91,5.69,1.49c4.33-0.72,7.37-0.78,9.2,2.19
			c1.64,2.67,0.3,6.18-2.7,8.02c-3.03,1.86-6.17,1.35-6.69,1.25C404.87,488.91,404.49,488.86,404.49,488.19z"/>
		<path class="st5" d="M419.99,458.47l-4.1,3.27c-0.26,0.21-0.62,0.14-0.8-0.09l-0.55-0.68c-0.19-0.24-0.17-0.6,0.09-0.8l9.98-7.96
			c0.26-0.21,0.62-0.14,0.8,0.09l0.55,0.68c0.19,0.24,0.17,0.6-0.09,0.8l-4.1,3.27l11.53,14.46c0.19,0.24,0.14,0.62-0.09,0.8
			l-0.89,0.71c-0.24,0.19-0.62,0.14-0.8-0.09L419.99,458.47z"/>
		<path class="st5" d="M433.93,444.62c-0.22-0.21-0.23-0.59-0.02-0.81l0.81-0.85c0.23-0.24,0.59-0.23,0.81-0.02l6.38,6.05l8.41-8.87
			l-6.38-6.05c-0.22-0.21-0.25-0.57-0.02-0.81l0.81-0.85c0.21-0.22,0.59-0.23,0.81-0.02L460,446.09c0.22,0.21,0.23,0.59,0.02,0.81
			l-0.81,0.85c-0.23,0.24-0.59,0.23-0.81,0.02l-6.62-6.28l-8.41,8.87l6.62,6.28c0.22,0.21,0.25,0.57,0.02,0.81l-0.81,0.85
			c-0.21,0.22-0.59,0.23-0.81,0.02L433.93,444.62z"/>
		<path class="st5" d="M454.39,421.23c-0.25-0.17-0.33-0.53-0.14-0.8l6.8-9.72c0.19-0.27,0.55-0.31,0.8-0.14l0.72,0.5
			c0.25,0.17,0.33,0.53,0.14,0.8l-5.8,8.29l6.02,4.21l4.95-7.08c0.17-0.25,0.55-0.31,0.8-0.14l0.72,0.5
			c0.27,0.19,0.31,0.55,0.14,0.8l-4.96,7.08l6.29,4.4l5.8-8.29c0.19-0.27,0.55-0.31,0.8-0.14l0.72,0.5c0.25,0.17,0.33,0.53,0.14,0.8
			l-6.8,9.72c-0.19,0.27-0.55,0.31-0.8,0.14L454.39,421.23z"/>
		<path class="st5" d="M471.12,397.4l-2.44,4.64c-0.15,0.29-0.51,0.38-0.77,0.24l-0.77-0.41c-0.27-0.14-0.39-0.48-0.24-0.77
			l5.94-11.3c0.15-0.29,0.51-0.38,0.77-0.24l0.77,0.41c0.27,0.14,0.39,0.48,0.24,0.77l-2.44,4.64l16.36,8.6
			c0.27,0.14,0.38,0.51,0.24,0.77l-0.53,1.01c-0.14,0.27-0.51,0.38-0.77,0.24L471.12,397.4z"/>
		<path class="st5" d="M478.22,378.83c-0.28-0.11-0.43-0.46-0.32-0.74l0.45-1.12c0.11-0.28,0.46-0.43,0.74-0.32l18.51,7.4
			c0.28,0.11,0.43,0.46,0.32,0.74l-0.45,1.12c-0.11,0.28-0.46,0.43-0.74,0.32L478.22,378.83z"/>
		<path class="st5" d="M485.53,353.86c0.78-2.94,2.36-4.8,4.57-6.33c0.3-0.17,0.65-0.11,0.82,0.19l0.58,0.99
			c0.23,0.31,0.14,0.54-0.23,0.75c-1.71,1.17-3.13,3-3.65,4.98c-1.22,4.6,1.72,9.15,6.24,10.34c4.48,1.19,9.29-1.31,10.5-5.91
			c0.67-2.53,0.04-4.29-0.71-6.14c-0.16-0.35-0.07-0.58,0.1-0.72l1.02-0.67c0.24-0.19,0.63-0.02,0.78,0.24
			c1.4,2.49,1.64,5.23,0.95,7.82c-1.54,5.82-7.41,9.29-13.23,7.75C487.43,365.61,483.99,359.69,485.53,353.86z"/>
		<path class="st5" d="M507.42,337.8c-0.16-0.17-0.35-0.34-0.51-0.52c-0.35-0.35-0.55-0.7-0.14-1.08c0.2-0.19,2.56-2.12,2.87-4.78
			c0.29-2.42-1.05-4.19-2.81-4.4c-2.06-0.25-3.5,1.4-5.35,4.67c-1.83,3.12-3.41,4.93-6.82,4.53c-2.03-0.24-5.13-2.25-4.56-7
			c0.35-2.93,2.13-4.93,2.13-4.93c0.11-0.17,0.51-0.49,1.04-0.06c0.17,0.14,0.36,0.29,0.53,0.43c0.39,0.32,0.47,0.63,0.14,1.08
			c-0.14,0.2-1.62,1.93-1.84,3.75c-0.38,3.17,1.54,4.37,2.8,4.52c2,0.24,3.35-1.15,4.7-3.53c2.12-3.84,3.96-6.26,7.43-5.85
			c3.11,0.37,5.03,3.6,4.61,7.1c-0.42,3.53-2.77,5.67-3.17,6.02C508.22,337.96,507.94,338.23,507.42,337.8z"/>
	</g>
	<circle class="st2" cx="91.84" cy="292.37" r="9.74"/>
	<circle class="st2" cx="507.52" cy="292.37" r="9.74"/>
</g>
</svg>
